<?xml version="1.0" encoding="UTF-8" standalone="yes"?><svg xmlns="http://www.w3.org/2000/svg" xmlns:xlink="http://www.w3.org/1999/xlink" height="631px" style="width:1381px;height:631px;" version="1.1" viewBox="0 0 1381 631" width="1381px"><defs><filter height="300%" id="f1" width="300%" x="-1" y="-1"><feGaussianBlur result="blurOut" stdDeviation="2.0"/><feColorMatrix in="blurOut" result="blurOut2" type="matrix" values="0 0 0 0 0 0 0 0 0 0 0 0 0 0 0 0 0 0 .4 0"/><feOffset dx="4.0" dy="4.0" in="blurOut2" result="blurOut3"/><feBlend in="SourceGraphic" in2="blurOut3" mode="normal"/></filter></defs><g><path d="M25,79 C25,76 27,74 30,74 C33,74 35,76 35,79 C35,76 37,74 40,74 C43,74 45,76 45,79 C45,76 47,74 50,74 C53,74 55,76 55,79 C55,76 57,74 60,74 C63,74 65,76 65,79 C65,76 67,74 70,74 C73,74 75,76 75,79 C75,76 77,74 80,74 C83,74 85,76 85,79 C85,76 87,74 90,74 C93,74 95,76 95,79 C95,76 97,74 100,74 C103,74 105,76 105,79 C105,76 107,74 110,74 C113,74 115,76 115,79 C115,76 117,74 120,74 C123,74 125,76 125,79 C125,76 127,74 130,74 C133,74 135,76 135,79 C135,76 137,74 140,74 C143,74 145,76 145,79 C145,76 147,74 150,74 C153,74 155,76 155,79 C155,76 157,74 160,74 C163,74 165,76 165,79 C165,76 167,74 170,74 C173,74 175,76 175,79 C175,76 177,74 180,74 C183,74 185,76 185,79 C185,76 187,74 190,74 C193,74 195,76 195,79 C195,76 197,74 200,74 C203,74 205,76 205,79 C205,76 207,74 210,74 C213,74 215,76 215,79 C215,76 217,74 220,74 C223,74 225,76 225,79 C225,76 227,74 230,74 C233,74 235,76 235,79 C235,76 237,74 240,74 C243,74 245,76 245,79 C245,76 247,74 250,74 C253,74 255,76 255,79 C255,76 257,74 260,74 C263,74 265,76 265,79 C265,76 267,74 270,74 C273,74 275,76 275,79 C275,76 277,74 280,74 C283,74 285,76 285,79 C285,76 287,74 290,74 C293,74 295,76 295,79 C295,76 297,74 300,74 C303,74 305,76 305,79 C305,76 307,74 310,74 C313,74 315,76 315,79 C315,76 317,74 320,74 C323,74 325,76 325,79 C325,76 327,74 330,74 C333,74 335,76 335,79 C335,76 337,74 340,74 C343,74 345,76 345,79 C345,76 347,74 350,74 C353,74 355,76 355,79 C355,76 357,74 360,74 C363,74 365,76 365,79 C365,76 367,74 370,74 C373,74 375,76 375,79 C375,76 377,74 380,74 C383,74 385,76 385,79 C385,76 387,74 390,74 C393,74 395,76 395,79 C395,76 397,74 400,74 C403,74 405,76 405,79 C405,76 407,74 410,74 C413,74 415,76 415,79 C415,76 417,74 420,74 C423,74 425,76 425,79 C425,76 427,74 430,74 C433,74 435,76 435,79 C435,76 437,74 440,74 C443,74 445,76 445,79 C445,76 447,74 450,74 C453,74 455,76 455,79 C455,76 457,74 460,74 C463,74 465,76 465,79 C465,76 467,74 470,74 C473,74 475,76 475,79 C475,76 477,74 480,74 C483,74 485,76 485,79 C485,76 487,74 490,74 C493,74 495,76 495,79 C498,79 500,81 500,84 C500,87 498,89 495,89 C498,89 500,91 500,94 C500,97 498,99 495,99 C498,99 500,101 500,104 C500,107 498,109 495,109 C498,109 500,111 500,114 C500,117 498,119 495,119 C498,119 500,121 500,124 C500,127 498,129 495,129 C498,129 500,131 500,134 C500,137 498,139 495,139 C498,139 500,141 500,144 C500,147 498,149 495,149 C498,149 500,151 500,154 C500,157 498,159 495,159 C498,159 500,161 500,164 C500,167 498,169 495,169 C498,169 500,171 500,174 C500,177 498,179 495,179 C498,179 500,181 500,184 C500,187 498,189 495,189 C498,189 500,191 500,194 C500,197 498,199 495,199 C498,199 500,201 500,204 C500,207 498,209 495,209 C498,209 500,211 500,214 C500,217 498,219 495,219 C495,222 492,224 490,224 C487,224 485,222 485,219 C485,222 482,224 480,224 C477,224 475,222 475,219 C475,222 472,224 470,224 C467,224 465,222 465,219 C465,222 462,224 460,224 C457,224 455,222 455,219 C455,222 452,224 450,224 C447,224 445,222 445,219 C445,222 442,224 440,224 C437,224 435,222 435,219 C435,222 432,224 430,224 C427,224 425,222 425,219 C425,222 422,224 420,224 C417,224 415,222 415,219 C415,222 412,224 410,224 C407,224 405,222 405,219 C405,222 402,224 400,224 C397,224 395,222 395,219 C395,222 392,224 390,224 C387,224 385,222 385,219 C385,222 382,224 380,224 C377,224 375,222 375,219 C375,222 372,224 370,224 C367,224 365,222 365,219 C365,222 362,224 360,224 C357,224 355,222 355,219 C355,222 352,224 350,224 C347,224 345,222 345,219 C345,222 342,224 340,224 C337,224 335,222 335,219 C335,222 332,224 330,224 C327,224 325,222 325,219 C325,222 322,224 320,224 C317,224 315,222 315,219 C315,222 312,224 310,224 C307,224 305,222 305,219 C305,222 302,224 300,224 C297,224 295,222 295,219 C295,222 292,224 290,224 C287,224 285,222 285,219 C285,222 282,224 280,224 C277,224 275,222 275,219 C275,222 272,224 270,224 C267,224 265,222 265,219 C265,222 262,224 260,224 C257,224 255,222 255,219 C255,222 252,224 250,224 C247,224 245,222 245,219 C245,222 242,224 240,224 C237,224 235,222 235,219 C235,222 232,224 230,224 C227,224 225,222 225,219 C225,222 222,224 220,224 C217,224 215,222 215,219 C215,222 212,224 210,224 C207,224 205,222 205,219 C205,222 202,224 200,224 C197,224 195,222 195,219 C195,222 192,224 190,224 C187,224 185,222 185,219 C185,222 182,224 180,224 C177,224 175,222 175,219 C175,222 172,224 170,224 C167,224 165,222 165,219 C165,222 162,224 160,224 C157,224 155,222 155,219 C155,222 152,224 150,224 C147,224 145,222 145,219 C145,222 142,224 140,224 C137,224 135,222 135,219 C135,222 132,224 130,224 C127,224 125,222 125,219 C125,222 122,224 120,224 C117,224 115,222 115,219 C115,222 112,224 110,224 C107,224 105,222 105,219 C105,222 102,224 100,224 C97,224 95,222 95,219 C95,222 92,224 90,224 C87,224 85,222 85,219 C85,222 82,224 80,224 C77,224 75,222 75,219 C75,222 72,224 70,224 C67,224 65,222 65,219 C65,222 62,224 60,224 C57,224 55,222 55,219 C55,222 52,224 50,224 C47,224 45,222 45,219 C45,222 42,224 40,224 C37,224 35,222 35,219 C35,222 32,224 30,224 C27,224 25,222 25,219 C22,219 20,217 20,214 C20,211 22,209 25,209 C22,209 20,207 20,204 C20,201 22,199 25,199 C22,199 20,197 20,194 C20,191 22,189 25,189 C22,189 20,187 20,184 C20,181 22,179 25,179 C22,179 20,177 20,174 C20,171 22,169 25,169 C22,169 20,167 20,164 C20,161 22,159 25,159 C22,159 20,157 20,154 C20,151 22,149 25,149 C22,149 20,147 20,144 C20,141 22,139 25,139 C22,139 20,137 20,134 C20,131 22,129 25,129 C22,129 20,127 20,124 C20,121 22,119 25,119 C22,119 20,117 20,114 C20,111 22,109 25,109 C22,109 20,107 20,104 C20,101 22,99 25,99 C22,99 20,97 20,94 C20,91 22,89 25,89 C22,89 20,87 20,84 C20,81 22,79 25,79 " fill="#FFFFFF" filter="url(#f1)" style="stroke: #000000; stroke-width: 2.0;"/><text fill="#000000" font-family="sans-serif" font-size="14" font-weight="bold" lengthAdjust="spacingAndGlyphs" textLength="112" x="205" y="98.5352">NGINX/APACHE</text><polygon fill="#FFFFFF" filter="url(#f1)" points="46,115,238,115,245,137.4883,476,137.4883,476,202,46,202,46,115" style="stroke: #000000; stroke-width: 2.0;"/><line style="stroke: #000000; stroke-width: 2.0;" x1="46" x2="245" y1="137.4883" y2="137.4883"/><text fill="#000000" font-family="sans-serif" font-size="14" font-weight="bold" lengthAdjust="spacingAndGlyphs" textLength="186" x="50" y="130.5352">GEONODE VIRTUAL HOST</text><polygon fill="#FFFFFF" filter="url(#f1)" points="524,34,534,24,1376,24,1376,418,1366,428,524,428,524,34" style="stroke: #000000; stroke-width: 2.0;"/><line style="stroke: #000000; stroke-width: 2.0;" x1="1366" x2="1375" y1="34" y2="25"/><line style="stroke: #000000; stroke-width: 2.0;" x1="524" x2="1366" y1="34" y2="34"/><line style="stroke: #000000; stroke-width: 2.0;" x1="1366" x2="1366" y1="34" y2="428"/><text fill="#000000" font-family="sans-serif" font-size="14" font-weight="bold" lengthAdjust="spacingAndGlyphs" textLength="140" x="876" y="50.5352">Middleware Servers</text><polygon fill="#FFFFFF" filter="url(#f1)" points="1202,72,1308,72,1315,94.4883,1352,94.4883,1352,226,1202,226,1202,72" style="stroke: #000000; stroke-width: 2.0;"/><line style="stroke: #000000; stroke-width: 2.0;" x1="1202" x2="1315" y1="94.4883" y2="94.4883"/><text fill="#000000" font-family="sans-serif" font-size="14" font-weight="bold" lengthAdjust="spacingAndGlyphs" textLength="100" x="1206" y="87.5352">Django Server</text><polygon fill="#FFFFFF" filter="url(#f1)" points="1226,115,1283,115,1290,137.4883,1328,137.4883,1328,202,1226,202,1226,115" style="stroke: #000000; stroke-width: 2.0;"/><line style="stroke: #000000; stroke-width: 2.0;" x1="1226" x2="1290" y1="137.4883" y2="137.4883"/><text fill="#000000" font-family="sans-serif" font-size="14" font-weight="bold" lengthAdjust="spacingAndGlyphs" textLength="51" x="1230" y="130.5352">Django</text><polygon fill="#FFFFFF" filter="url(#f1)" points="590,250,667,250,674,272.4883,1243,272.4883,1243,404,590,404,590,250" style="stroke: #000000; stroke-width: 2.0;"/><line style="stroke: #000000; stroke-width: 2.0;" x1="590" x2="674" y1="272.4883" y2="272.4883"/><text fill="#000000" font-family="sans-serif" font-size="14" font-weight="bold" lengthAdjust="spacingAndGlyphs" textLength="71" x="594" y="265.5352">GeoServer</text><polygon fill="#FFFFFF" filter="url(#f1)" points="1039,293,1177,293,1184,315.4883,1219,315.4883,1219,380,1039,380,1039,293" style="stroke: #000000; stroke-width: 2.0;"/><line style="stroke: #000000; stroke-width: 2.0;" x1="1039" x2="1184" y1="315.4883" y2="315.4883"/><text fill="#000000" font-family="sans-serif" font-size="14" font-weight="bold" lengthAdjust="spacingAndGlyphs" textLength="132" x="1043" y="308.5352">GeoServer Internal</text><polygon fill="#FFFFFF" filter="url(#f1)" points="865,293,970,293,977,315.4883,1015,315.4883,1015,380,865,380,865,293" style="stroke: #000000; stroke-width: 2.0;"/><line style="stroke: #000000; stroke-width: 2.0;" x1="865" x2="977" y1="315.4883" y2="315.4883"/><text fill="#000000" font-family="sans-serif" font-size="14" font-weight="bold" lengthAdjust="spacingAndGlyphs" textLength="99" x="869" y="308.5352">GeoWebCache</text><polygon fill="#FFFFFF" filter="url(#f1)" points="721,293,794,293,801,315.4883,841,315.4883,841,380,721,380,721,293" style="stroke: #000000; stroke-width: 2.0;"/><line style="stroke: #000000; stroke-width: 2.0;" x1="721" x2="801" y1="315.4883" y2="315.4883"/><text fill="#000000" font-family="sans-serif" font-size="14" font-weight="bold" lengthAdjust="spacingAndGlyphs" textLength="67" x="725" y="308.5352">GeoFence</text><rect fill="#FFFFFF" filter="url(#f1)" height="154" style="stroke: #000000; stroke-width: 2.0;" width="306" x="872" y="72"/><path d="M970,73 L970,81.4883 L960,91.4883 L872,91.4883 " fill="#FFFFFF" style="stroke: #000000; stroke-width: 2.0;"/><text fill="#000000" font-family="sans-serif" font-size="14" font-weight="bold" lengthAdjust="spacingAndGlyphs" textLength="88" x="875" y="86.5352">CSW Servers</text><polygon fill="#FFFFFF" filter="url(#f1)" points="1056,115,1110,115,1117,137.4883,1154,137.4883,1154,202,1056,202,1056,115" style="stroke: #000000; stroke-width: 2.0;"/><line style="stroke: #000000; stroke-width: 2.0;" x1="1056" x2="1117" y1="137.4883" y2="137.4883"/><text fill="#000000" font-family="sans-serif" font-size="14" font-weight="bold" lengthAdjust="spacingAndGlyphs" textLength="48" x="1060" y="130.5352">pyCSW</text><polygon fill="#FFFFFF" filter="url(#f1)" points="896,115,990,115,997,137.4883,1032,137.4883,1032,202,896,202,896,115" style="stroke: #000000; stroke-width: 2.0;"/><line style="stroke: #000000; stroke-width: 2.0;" x1="896" x2="997" y1="137.4883" y2="137.4883"/><text fill="#000000" font-family="sans-serif" font-size="14" font-weight="bold" lengthAdjust="spacingAndGlyphs" textLength="88" x="900" y="130.5352">GeoNetwork</text><rect fill="#FFFFFF" filter="url(#f1)" height="154" style="stroke: #000000; stroke-width: 2.0;" width="300" x="548" y="72"/><path d="M670,73 L670,81.4883 L660,91.4883 L548,91.4883 " fill="#FFFFFF" style="stroke: #000000; stroke-width: 2.0;"/><text fill="#000000" font-family="sans-serif" font-size="14" font-weight="bold" lengthAdjust="spacingAndGlyphs" textLength="112" x="551" y="86.5352">Indexes Servers</text><polygon fill="#FFFFFF" filter="url(#f1)" points="684,115,783,115,790,137.4883,824,137.4883,824,202,684,202,684,115" style="stroke: #000000; stroke-width: 2.0;"/><line style="stroke: #000000; stroke-width: 2.0;" x1="684" x2="790" y1="137.4883" y2="137.4883"/><text fill="#000000" font-family="sans-serif" font-size="14" font-weight="bold" lengthAdjust="spacingAndGlyphs" textLength="93" x="688" y="130.5352">Elasticsearch</text><polygon fill="#FFFFFF" filter="url(#f1)" points="572,115,616,115,623,137.4883,660,137.4883,660,202,572,202,572,115" style="stroke: #000000; stroke-width: 2.0;"/><line style="stroke: #000000; stroke-width: 2.0;" x1="572" x2="623" y1="137.4883" y2="137.4883"/><text fill="#000000" font-family="sans-serif" font-size="14" font-weight="bold" lengthAdjust="spacingAndGlyphs" textLength="38" x="576" y="130.5352">SOLR</text><polygon fill="#FFFFFF" filter="url(#f1)" points="408,462,418,452,1192,452,1192,616,1182,626,408,626,408,462" style="stroke: #000000; stroke-width: 2.0;"/><line style="stroke: #000000; stroke-width: 2.0;" x1="1182" x2="1191" y1="462" y2="453"/><line style="stroke: #000000; stroke-width: 2.0;" x1="408" x2="1182" y1="462" y2="462"/><line style="stroke: #000000; stroke-width: 2.0;" x1="1182" x2="1182" y1="462" y2="626"/><text fill="#000000" font-family="sans-serif" font-size="14" font-weight="bold" lengthAdjust="spacingAndGlyphs" textLength="203" x="694.5" y="478.5352">Back-End Server &amp; Elements</text><path d="M778,510 C778,500 973,500 973,500 C973,500 1168,500 1168,510 L1168,592 C1168,602 973,602 973,602 C973,602 778,602 778,592 L778,510 " fill="#FFFFFF" filter="url(#f1)" style="stroke: #000000; stroke-width: 2.0;"/><path d="M778,510 C778,520 973,520 973,520 C973,520 1168,520 1168,510 " fill="none" style="stroke: #000000; stroke-width: 2.0;"/><text fill="#000000" font-family="sans-serif" font-size="14" font-weight="bold" lengthAdjust="spacingAndGlyphs" textLength="83" x="931.5" y="534.5352">PostgreSQL</text><polygon fill="#FFFFFF" filter="url(#f1)" points="638,515,713,515,720,537.4883,754,537.4883,754,602,638,602,638,515" style="stroke: #000000; stroke-width: 2.0;"/><line style="stroke: #000000; stroke-width: 2.0;" x1="638" x2="720" y1="537.4883" y2="537.4883"/><text fill="#000000" font-family="sans-serif" font-size="14" font-weight="bold" lengthAdjust="spacingAndGlyphs" textLength="69" x="642" y="530.5352">ActiveMQ</text><polygon fill="#FFFFFF" filter="url(#f1)" points="432,515,547,515,554,537.4883,614,537.4883,614,602,432,602,432,515" style="stroke: #000000; stroke-width: 2.0;"/><line style="stroke: #000000; stroke-width: 2.0;" x1="432" x2="554" y1="537.4883" y2="537.4883"/><text fill="#000000" font-family="sans-serif" font-size="14" font-weight="bold" lengthAdjust="spacingAndGlyphs" textLength="109" x="436" y="530.5352">GeoServer Data</text><rect fill="#FEFECE" filter="url(#f1)" height="36.4883" style="stroke: #A80036; stroke-width: 1.5;" width="114" x="346" y="150"/><rect fill="#FEFECE" height="5" style="stroke: #A80036; stroke-width: 1.5;" width="10" x="341" y="155"/><rect fill="#FEFECE" height="5" style="stroke: #A80036; stroke-width: 1.5;" width="10" x="341" y="176.4883"/><text fill="#000000" font-family="sans-serif" font-size="14" lengthAdjust="spacingAndGlyphs" textLength="94" x="356" y="173.5352">WSGI-Process</text><rect fill="#FEFECE" filter="url(#f1)" height="36.4883" style="stroke: #A80036; stroke-width: 1.5;" width="135" x="175.5" y="150"/><rect fill="#FEFECE" height="5" style="stroke: #A80036; stroke-width: 1.5;" width="10" x="170.5" y="155"/><rect fill="#FEFECE" height="5" style="stroke: #A80036; stroke-width: 1.5;" width="10" x="170.5" y="176.4883"/><text fill="#000000" font-family="sans-serif" font-size="14" lengthAdjust="spacingAndGlyphs" textLength="115" x="185.5" y="173.5352">GeoServer Public</text><rect fill="#FEFECE" filter="url(#f1)" height="36.4883" style="stroke: #A80036; stroke-width: 1.5;" width="78" x="62" y="150"/><rect fill="#FEFECE" height="5" style="stroke: #A80036; stroke-width: 1.5;" width="10" x="57" y="155"/><rect fill="#FEFECE" height="5" style="stroke: #A80036; stroke-width: 1.5;" width="10" x="57" y="176.4883"/><text fill="#000000" font-family="sans-serif" font-size="14" lengthAdjust="spacingAndGlyphs" textLength="58" x="72" y="173.5352">HTTP 80</text><rect fill="#FEFECE" filter="url(#f1)" height="36.4883" style="stroke: #A80036; stroke-width: 1.5;" width="69" x="1242.5" y="150"/><rect fill="#FEFECE" height="5" style="stroke: #A80036; stroke-width: 1.5;" width="10" x="1237.5" y="155"/><rect fill="#FEFECE" height="5" style="stroke: #A80036; stroke-width: 1.5;" width="10" x="1237.5" y="176.4883"/><text fill="#000000" font-family="sans-serif" font-size="14" lengthAdjust="spacingAndGlyphs" textLength="49" x="1252.5" y="173.5352">Django</text><rect fill="#FEFECE" filter="url(#f1)" height="36.4883" style="stroke: #A80036; stroke-width: 1.5;" width="96" x="606" y="328"/><rect fill="#FEFECE" height="5" style="stroke: #A80036; stroke-width: 1.5;" width="10" x="601" y="333"/><rect fill="#FEFECE" height="5" style="stroke: #A80036; stroke-width: 1.5;" width="10" x="601" y="354.4883"/><text fill="#000000" font-family="sans-serif" font-size="14" lengthAdjust="spacingAndGlyphs" textLength="76" x="616" y="351.5352">HTTP 8080</text><rect fill="#FEFECE" filter="url(#f1)" height="36.4883" style="stroke: #A80036; stroke-width: 1.5;" width="147" x="1055.5" y="328"/><rect fill="#FEFECE" height="5" style="stroke: #A80036; stroke-width: 1.5;" width="10" x="1050.5" y="333"/><rect fill="#FEFECE" height="5" style="stroke: #A80036; stroke-width: 1.5;" width="10" x="1050.5" y="354.4883"/><text fill="#000000" font-family="sans-serif" font-size="14" lengthAdjust="spacingAndGlyphs" textLength="127" x="1065.5" y="351.5352">GeoServer Internal</text><rect fill="#FEFECE" filter="url(#f1)" height="36.4883" style="stroke: #A80036; stroke-width: 1.5;" width="118" x="881" y="328"/><rect fill="#FEFECE" height="5" style="stroke: #A80036; stroke-width: 1.5;" width="10" x="876" y="333"/><rect fill="#FEFECE" height="5" style="stroke: #A80036; stroke-width: 1.5;" width="10" x="876" y="354.4883"/><text fill="#000000" font-family="sans-serif" font-size="14" lengthAdjust="spacingAndGlyphs" textLength="98" x="891" y="351.5352">GeoWebCache</text><rect fill="#FEFECE" filter="url(#f1)" height="36.4883" style="stroke: #A80036; stroke-width: 1.5;" width="87" x="737.5" y="328"/><rect fill="#FEFECE" height="5" style="stroke: #A80036; stroke-width: 1.5;" width="10" x="732.5" y="333"/><rect fill="#FEFECE" height="5" style="stroke: #A80036; stroke-width: 1.5;" width="10" x="732.5" y="354.4883"/><text fill="#000000" font-family="sans-serif" font-size="14" lengthAdjust="spacingAndGlyphs" textLength="67" x="747.5" y="351.5352">GeoFence</text><rect fill="#FEFECE" filter="url(#f1)" height="36.4883" style="stroke: #A80036; stroke-width: 1.5;" width="66" x="1072" y="150"/><rect fill="#FEFECE" height="5" style="stroke: #A80036; stroke-width: 1.5;" width="10" x="1067" y="155"/><rect fill="#FEFECE" height="5" style="stroke: #A80036; stroke-width: 1.5;" width="10" x="1067" y="176.4883"/><text fill="#000000" font-family="sans-serif" font-size="14" lengthAdjust="spacingAndGlyphs" textLength="46" x="1082" y="173.5352">pyCSW</text><rect fill="#FEFECE" filter="url(#f1)" height="36.4883" style="stroke: #A80036; stroke-width: 1.5;" width="104" x="912" y="150"/><rect fill="#FEFECE" height="5" style="stroke: #A80036; stroke-width: 1.5;" width="10" x="907" y="155"/><rect fill="#FEFECE" height="5" style="stroke: #A80036; stroke-width: 1.5;" width="10" x="907" y="176.4883"/><text fill="#000000" font-family="sans-serif" font-size="14" lengthAdjust="spacingAndGlyphs" textLength="84" x="922" y="173.5352">GeoNetwork</text><rect fill="#FEFECE" filter="url(#f1)" height="36.4883" style="stroke: #A80036; stroke-width: 1.5;" width="108" x="700" y="150"/><rect fill="#FEFECE" height="5" style="stroke: #A80036; stroke-width: 1.5;" width="10" x="695" y="155"/><rect fill="#FEFECE" height="5" style="stroke: #A80036; stroke-width: 1.5;" width="10" x="695" y="176.4883"/><text fill="#000000" font-family="sans-serif" font-size="14" lengthAdjust="spacingAndGlyphs" textLength="88" x="710" y="173.5352">Elasticsearch</text><rect fill="#FEFECE" filter="url(#f1)" height="36.4883" style="stroke: #A80036; stroke-width: 1.5;" width="55" x="588.5" y="150"/><rect fill="#FEFECE" height="5" style="stroke: #A80036; stroke-width: 1.5;" width="10" x="583.5" y="155"/><rect fill="#FEFECE" height="5" style="stroke: #A80036; stroke-width: 1.5;" width="10" x="583.5" y="176.4883"/><text fill="#000000" font-family="sans-serif" font-size="14" lengthAdjust="spacingAndGlyphs" textLength="35" x="598.5" y="173.5352">SOLR</text><rect fill="#FEFECE" filter="url(#f1)" height="36.4883" style="stroke: #A80036; stroke-width: 1.5;" width="81" x="1070.5" y="550"/><rect fill="#FEFECE" height="5" style="stroke: #A80036; stroke-width: 1.5;" width="10" x="1065.5" y="555"/><rect fill="#FEFECE" height="5" style="stroke: #A80036; stroke-width: 1.5;" width="10" x="1065.5" y="576.4883"/><text fill="#000000" font-family="sans-serif" font-size="14" lengthAdjust="spacingAndGlyphs" textLength="61" x="1080.5" y="573.5352">geonode</text><rect fill="#FEFECE" filter="url(#f1)" height="36.4883" style="stroke: #A80036; stroke-width: 1.5;" width="118" x="917" y="550"/><rect fill="#FEFECE" height="5" style="stroke: #A80036; stroke-width: 1.5;" width="10" x="912" y="555"/><rect fill="#FEFECE" height="5" style="stroke: #A80036; stroke-width: 1.5;" width="10" x="912" y="576.4883"/><text fill="#000000" font-family="sans-serif" font-size="14" lengthAdjust="spacingAndGlyphs" textLength="98" x="927" y="573.5352">geonode_data</text><rect fill="#FEFECE" filter="url(#f1)" height="36.4883" style="stroke: #A80036; stroke-width: 1.5;" width="87" x="794.5" y="550"/><rect fill="#FEFECE" height="5" style="stroke: #A80036; stroke-width: 1.5;" width="10" x="789.5" y="555"/><rect fill="#FEFECE" height="5" style="stroke: #A80036; stroke-width: 1.5;" width="10" x="789.5" y="576.4883"/><text fill="#000000" font-family="sans-serif" font-size="14" lengthAdjust="spacingAndGlyphs" textLength="67" x="804.5" y="573.5352">TCP 5432</text><rect fill="#FEFECE" filter="url(#f1)" height="36.4883" style="stroke: #A80036; stroke-width: 1.5;" width="84" x="654" y="550"/><rect fill="#FEFECE" height="5" style="stroke: #A80036; stroke-width: 1.5;" width="10" x="649" y="555"/><rect fill="#FEFECE" height="5" style="stroke: #A80036; stroke-width: 1.5;" width="10" x="649" y="576.4883"/><text fill="#000000" font-family="sans-serif" font-size="14" lengthAdjust="spacingAndGlyphs" textLength="64" x="664" y="573.5352">ActiveMQ</text><rect fill="#FEFECE" filter="url(#f1)" height="36.4883" style="stroke: #A80036; stroke-width: 1.5;" width="149" x="448.5" y="550"/><rect fill="#FEFECE" height="5" style="stroke: #A80036; stroke-width: 1.5;" width="10" x="443.5" y="555"/><rect fill="#FEFECE" height="5" style="stroke: #A80036; stroke-width: 1.5;" width="10" x="443.5" y="576.4883"/><text fill="#000000" font-family="sans-serif" font-size="14" lengthAdjust="spacingAndGlyphs" textLength="129" x="458.5" y="573.5352">GeoServer Data Dir</text><path d="M112.0065,186.2666 C122.0862,201.3915 138.3946,222.241 158,234 C234.0845,279.6342 496.4619,322.6531 605.6902,339.0314 " fill="none" style="stroke: #A80036; stroke-width: 1.0; stroke-dasharray: 7.0,7.0;"/><path d="M662.6321,364.1932 C673.3801,384.8288 693.7048,417.947 721,436 C733.5874,444.3253 741.6011,435.3965 754,444 C792.8808,470.9789 818.9343,522.2707 830.7477,549.6696 " fill="none" style="stroke: #A80036; stroke-width: 1.0; stroke-dasharray: 7.0,7.0;"/><path d="M1279.6927,186.0738 C1285.8945,235.4031 1295.281,372.8667 1219,436 C1205.343,447.3031 914.9621,434.4916 900,444 C862.6224,467.7533 846.9458,521.4198 841.0844,549.7283 " fill="none" style="stroke: #A80036; stroke-width: 1.0; stroke-dasharray: 7.0,7.0;"/><path d="M1251.6416,186.2808 C1227.7683,202.3147 1190.3437,224.5075 1154,234 C1130.7213,240.0801 742.0158,230.2865 721,242 C687.7935,260.5082 668.4765,303.1394 659.7166,327.6884 " fill="none" style="stroke: #A80036; stroke-width: 1.0; stroke-dasharray: 7.0,7.0;"/></g></svg>